<svg id="al93k4as9h1z" version="1.1" xmlns="http://www.w3.org/2000/svg" xmlns:xlink="http://www.w3.org/1999/xlink" width="60" height="60" viewBox="0 0 60 60" style="" ><defs ></defs><svg stroke-opacity="0.1" stroke="#fff" stroke-width="0" fill="#ffc90d" x="0" y="0" ><path d="M 30 30m -30, 0a 30,30 0 1,0 60,0a 30,30 0 1,0 -60,0" ></path></svg><svg width="48" height="48" y="6" x="6" fill="#fff" ><svg xmlns="http://www.w3.org/2000/svg" xmlns:xlink="http://www.w3.org/1999/xlink" version="1.1" x="0px" y="0px" viewBox="0 0 100 100" style="enable-background:new 0 0 100 100;" xml:space="preserve"><g><path style="" d="M75.874,45.82l-0.281-0.28c-6.76-6.761-15.745-10.483-25.302-10.483   c-9.556,0-18.541,3.722-25.298,10.479l-0.284,0.284l-4.944-4.957l0.281-0.28c8.077-8.077,18.819-12.527,30.245-12.527   c11.427,0,22.169,4.45,30.248,12.53l0.278,0.277L75.874,45.82z" ></path><path style="" d="M68.021,53.323l-0.202-0.202c-9.666-9.665-25.391-9.664-35.056,0l-0.202,0.202l-4.95-4.95   l0.202-0.202c12.394-12.395,32.563-12.393,44.955,0l0.202,0.202L68.021,53.323z" ></path><path style="" d="M60.882,61.167l-0.131-0.131c-5.765-5.764-15.155-5.765-20.927,0.007L39.7,61.167l-4.963-4.937   l0.131-0.131c8.508-8.507,22.341-8.505,30.841-0.007l0.137,0.138L60.882,61.167z" ></path><path style="" d="M57.746,63.567l-0.075-0.075c-4.076-4.076-10.684-4.076-14.76,0l-0.075,0.075l7.475,7.475   L57.746,63.567z" ></path></g></svg></svg></svg>